<?xml version="1.0" encoding="utf-8"?>
<!-- Generator: Adobe Illustrator 23.0.1, SVG Export Plug-In . SVG Version: 6.00 Build 0)  -->
<svg version="1.1" xmlns="http://www.w3.org/2000/svg" xmlns:xlink="http://www.w3.org/1999/xlink" x="0px" y="0px"
	 viewBox="0 0 1000.08 1000.08" style="enable-background:new 0 0 1000.08 1000.08;" xml:space="preserve">
<style type="text/css">
	.st0{display:none;}
	.st1{display:inline;}
	.st2{fill:#00FD00;}
</style>
<g id="Layer_4" class="st0">
	<rect x="-18.89" y="-15.69" class="st1" width="1041.43" height="1041.43"/>
</g>
<g id="Layer_1">
</g>
<g id="Layer_3">
	<path class="st2" d="M461.57,694.65c-0.01,31.84-0.13,63.68,0.02,95.53c0.05,11.3,7.42,18.98,18.13,18.99
		c50.82,0.07,101.63-0.06,152.45-0.04c3.49,0,5.55-1.24,7.18-4.37c23.25-44.65,48.07-88.44,71.88-132.78
		c10.34-19.27,10.76-18.6-8.46-30.39c-31.06-19.05-61.28-39.25-90.4-61.14c-6.09-4.58-8.07-9.06-14.56-13.02
		c-6.22-3.8-6.95-2.89-7.51,4.12c-1.76,22.16-2.31,44.39-1.82,66.62c0.13,5.83,1.62,9.56,6.93,12.1
		c14.34,6.86,24.28,14.07,38.24,21.71c6.2,3.39,7.27,7.89,5.58,14.08c-2.82,10.34-8.78,18.44-17.46,24.51
		c-13.1,9.14-27.89,12.94-43.69,13.56c-20.02,0.78-21.63-0.62-21.7-20.84c-0.12-32.5-0.34-64.99-0.09-97.49
		c0.37-48.19-1.15-96.4,0.96-144.57c0.61-13.84-6.73-21.59-20.75-21.44c-18.75,0.2-37.5,0.39-56.26,0.5
		c-13.72,0.08-19.7,6.09-19.33,20.13c1.43,54.52,0.14,109.04,0.67,156.2C461.58,647.55,461.58,671.1,461.57,694.65z M883.37,809.13
		c14.83,0,29.66,0.2,44.48-0.08c10.05-0.19,17.22-7.34,17.01-16.95c-0.59-27.26,0.9-54.49,1.06-81.73c0.07-11.99,0.36-23.99-1-35.95
		c-0.63-5.52-4.97-8.22-9.7-5.23c-2.54,1.6-3.07,5.23-4.33,7.74c-2.07,4.12-6.23,18.19-12.91,28.91
		c-4.71,7.55-11.56,12.86-15.91,14.34c-3.27,1.11-6.55,2.01-9.91,2.57c-2.41,0.4-13.11,0.61-15.99,0.61
		c-9.11,0.01-18.23,0.05-27.34-0.01c-2.59-0.02-5.29-0.14-7.75-0.88c-7.47-2.25-9.12-6.43-5.43-13.35
		c3.89-7.31,7.83-14.6,11.89-21.83c30.31-53.98,62.05-107.95,92.43-161.89c3.17-5.63,5.24-11.51,5.27-17.99
		c0.08-16.79,0.33-33.58,0.03-50.36c-0.17-9.6-9.43-16.83-19.48-17.11c-10.24-0.29-20.5,0.01-30.74-0.14
		c-3.75-0.06-5.97,1.61-7.9,4.67c-26.15,41.46-54.6,81.47-78.16,124.56c-31.35,57.35-65.06,113.38-95.11,171.44
		c-10.01,19.34-20,38.69-29.88,58.1c-4.96,9.75-3.53,11.96,7.04,11.95C729.87,810.48,858.07,809.13,883.37,809.13z M145.6,204.45
		c-24.43,0-48.87,0.03-73.3-0.02c-3.64-0.01-7.34,0.2-9.26,3.6c-3.17,5.64-2.71,11.9-0.7,17.68c1.85,5.31,7.01,4.95,11.69,4.95
		c56.5-0.03,113-0.02,169.5-0.02c1.75,0,3.49,0.02,5.24,0.02c2.63,0.01,4.02,1.01,3.77,3.95c-1.93,23.07-0.74,46.22-1.47,69.32
		c-0.15,4.57-2.58,6.29-6.49,6.48c-5.22,0.26-10.48-0.08-15.7,0.29c-5.93,0.42-8.2-1.84-8.04-7.89c0.34-13.3,0.16-26.61,0.17-39.92
		c0.01-12.24-8.81-18.51-20.46-14.66c-1.61,0.53-2.11,1.24-1.54,2.8c3.53,9.57,1.31,19.41,1.23,29.13
		c-0.14,15.97-1.04,17.03-16.99,17.23c-6.16,0.08-7.49,2.34-7.49,8.08c0.02,32.06,0.87,64.13-0.54,96.18
		c-0.33,7.49,2.95,10.93,10.45,11.03c8.07,0.11,16.14,0.04,24.21-0.15c8.38-0.21,10.87-2.87,10.88-11.11
		c0.02-13.96,0.06-27.92,0.09-41.88c0.01-5.81,2.47-9.02,8.74-8.64c3.69,0.23,7.41-0.02,11.12,0.04
		c8.66,0.14,10.74,2.08,10.82,10.96c0.12,12.65,0.08,39.4-0.15,52.04c-0.04,2.17,0.09,4.02,0.41,5.58
		c0.6,2.91,7.27,5.68,15.69,10.97c7.21,4.53,16.03,11.49,19.77,15.26c5.14,5.18,9.17,9.63,9.13,5.94
		c-0.52-49.08-0.48-150.31,0.12-199.39c0.07-5.88,0.82-11.82-1.12-17.54c-1.14-3.36,0.14-4.3,3.3-4.14
		c2.61,0.13,5.23,0.01,7.85,0.01c209.64,0,419.28,0,628.92,0c2.18,0,7.19,12.78,9.36,12.61c3.29-0.26,4.9-15.85,5.94-22.09
		c2.26-9.46-3.63-16.69-14.6-16.69c-143.54,0-287.08,0-430.63,0C385.56,204.45,265.58,204.45,145.6,204.45z M433.04,800.52
		c-2.24-4.08-2.22-9.05-2.13-14.21c0.29-17.22,0.12-34.45,0.04-51.68c-0.04-8.39-2-10.54-10.25-10.97
		c-5.22-0.28,2.22,0.05-3.01-0.07c-5.2,0.17-5.02-3.51-5.19-13.4c-0.29-16.57-0.34-33.14-0.29-49.71
		c0.22-67.16-0.77-134.32,0.48-201.48c0.23-12.45-5.95-19.12-18.45-19.14c-19.84-0.04-39.68-0.02-59.53,0.03
		c-6.74,0.02-13.59-0.43-15.7,3.92c-1.34,2.78-1.9,6.36-1.88,10.65c0.05,10.57,0.66,20.6,6,30.76
		c8.62,16.41,14.58,33.52,18.53,51.66c7.73,35.46-0.64,78.28-19.64,109c-3.25,5.25-4.55,10.53-4.53,16.64
		c0.12,44.04,0.11,82.45-0.08,126.49c-0.06,13.43,6.14,20.15,19.58,20.16c33.14,0.04,49.37,0.26,82.52,0.05
		c4.88-0.03,10.95-0.05,10.95-0.05s6.35,0.41,6.34-1.59C436.49,806.55,434.45,803.09,433.04,800.52z M63.39,794.52
		c2.13,7.77,8.46,12.43,16.51,12.28c20.5-0.39,40.99-0.39,61.49,0.12c8.57,0.21,11.87-3.14,12.05-11.64
		c1.29-61.24,4.13-122.44,3.6-183.72c-0.11-12.87-0.33-25.73-0.21-38.6c0.39-42.95,1.83-85.89,1.41-128.86
		c-0.04-4.14-0.03-7.01-5.64-6.95c-15.7,0.17-41.27,2.03-56.98-2.52c-9.6-2.78-11.21-24.03-24.1-24.03
		c-11.11,0.1-11.54,35.45-10.79,46.45c0.09,1.28,0.09,2.56,0.09,3.85c0.01,52.24,1.38,104.49,1.45,156.73
		c0.04,27.38-0.82,54.76-0.17,82.15C62.71,726.13,62.13,789.95,63.39,794.52z M890.47,371.87c-168.17-0.04-336.34-0.28-504.51,0.95
		c-5.45,0.04-10.91-0.03-16.36-0.2c-5.56-0.17-8.15-3.3-8.53-8.73c-0.66-9.56,2.68-13.2,12.38-13.12
		c9.82,0.08,19.63,0.37,29.45,0.27c7.23-0.08,10.26-3.26,10.44-10.45c0.15-5.89,0.18-11.78,0.13-17.67
		c-0.08-8.89-2.9-11.88-11.68-12.05c-10.03-0.19-20.07-0.06-30.1-0.17c-9.37-0.1-12.21-3.48-10.85-12.65
		c0.89-5.97,4.28-8.7,11.72-8.7c22.24,0.01,44.48,0.09,66.71,0.38c4.15,0.05,6.32-0.86,7.07-5.33c1.69-10.13,7.19-18.59,12.82-26.93
		c1.27-1.88,4.15-3.34,2.69-6.08c-1.58-2.97-4.58-3.66-7.87-3.55c-15.01,0.51-29.99,0.53-45.03,0.1
		c-25.29-0.71-50.61-0.18-75.91-0.17c-12.92,0.01-14.54,1.81-14.52,14.85c0.05,45.16,0.04,90.32-0.03,135.47
		c-0.02,12.81,1.88,14.89,14.66,14.87c53.44-0.12,106.88-0.34,160.31-0.36c122.39-0.06,244.78-0.02,367.16-0.03
		c2.4,0,4.82,0.09,7.18-0.23c2.35-0.32,4.6-0.99,6.11-3.26c7.98-11.95,16.06-23.83,24.41-36.2
		C895.2,371.31,892.79,371.87,890.47,371.87z M734.05,439.92c-36.43,0-72.85,0.02-109.28-0.02c-7.25-0.01-20.02,0.71-26.93,2.94
		c-2.92,0.94-6.98,2.25-6.96,6.36c0.09,19.12,1.59,65.07,2.96,68.63c3.63,9.43,11.85,17.13,19.58,23.99
		c17.27,15.35,34.69,30.45,53.8,43.61c20.11,13.85,39.54,28.68,59.21,43.17c4.1,3.02,8.84,4.12,12.65,1.12
		c3.8-2.99,3.02-7.61,0.7-11.9c-7.77-14.36-15.65-28.67-22.94-43.28c-9.17-18.39-4.87-28.55,14.27-35.32
		c2.26-0.8,4.53-1.56,6.84-2.19c19.44-5.26,39.32-7.76,59.35-8.98c3.96-0.24,6.25-1.5,8.29-4.85c15.65-25.7,31.49-51.29,47.23-76.94
		c0.99-1.62,3.1-3.3,2.27-5.14c-1.08-2.4-3.86-1.23-5.87-1.23c-38.39-0.07-76.78-0.05-115.17-0.05
		C734.05,439.88,734.05,439.9,734.05,439.92z M182.62,514.73c-0.04,11.05-0.07,11.05,10.62,11.49c1.74,0.07,3.48,0.21,5.22,0.4
		c14.51,1.63,19.73,9.8,22.6,22.52c3.54,15.69,3.58,30.9-10.49,42.43c-7.35,6.02-10.49,7.23-19.54,7.64
		c-8.53,0.39-8.55,0.41-8.58,9.1c-0.1,24.42-0.01,48.84-0.37,73.25c-0.08,5.41,1.69,6.91,6.75,6.25c4.31-0.57,8.71-0.44,13.05-0.78
		c22.84-1.8,39.78-3.99,59.9-17.05c16.23-10.54,29.91-23.26,39.74-39.89c16.97-28.69,18.31-59.55,13.81-91.77
		c-6.47-46.35-33.49-75.3-75.19-92.35c-18.45-7.54-32.52-8.5-52.24-8.68c-4.2-0.04-4.4,2.36-4.39,5.48
		C183.56,455.87,182.66,503.83,182.62,514.73z M125.6,247.77c-17.88,0-35.76-0.1-53.64,0.04c-9.84,0.08-12.44,2.74-12.77,12.39
		c-0.2,5.88-0.29,11.77-0.34,17.66c-0.08,9.11,2.87,33.37,11.98,33.49c9.16,0.11,18.32-21.26,27.47-21.12
		c9.51,0.14,10.86,1.64,10.85,11.2c-0.03,33.58-0.06,67.15-0.08,100.73c0,7.45,2.66,10.31,10.16,10.51
		c6.54,0.18,13.08,0.13,19.62,0.01c12.94-0.23,13.9-1.64,13.83-14.53c-0.17-32.7-0.07-65.41,0.05-98.11
		c0.03-8.45,1.54-9.71,10.13-9.78c6.1-0.05,12.21,0.03,18.31-0.04c5.42-0.06,8.7-2.84,9.06-8.26c0.48-7.17,0.85-14.37,0.76-21.55
		c-0.11-8.86-4.13-12.5-13.07-12.51c-17.44-0.02-34.88-0.01-52.33-0.01C125.6,247.85,125.6,247.81,125.6,247.77z M281.12,740.83
		c0-17.24,0-27.42,0-44.66c0-3.16,0.13-5.86-4.59-3.55c-23.76,11.63-54.43,19.74-81,20.49c-8.36,0.24-12.84,4.49-12.96,12.51
		c-0.39,25.74-0.53,43.02-0.55,68.76c0,7.09,6.46,14.51,13.46,14.63c21.59,0.35,48.83,0.45,70.41-0.12
		c9.67-0.26,15.46-7.9,15.43-17.67c-0.06-16.8-0.02-33.6-0.02-50.39C281.24,740.83,281.18,740.83,281.12,740.83z M915.94,411.56
		c2.91,0,5.01-0.12,7.61-0.12c21.28,0,21.33,0,21.23-21.32c-0.02-4.3,0.93-8.74-0.98-12.9c-2.12-4.6-6.74-6.49-8.88-3.43
		c-7.59,10.87-14.96,21.9-22.96,33.73c-0.87,1.29-2.76,3.2-2.32,3.74S914.06,411.56,915.94,411.56z M916.31,335.22
		c6.91-13.04,13.43-26.3,19.81-39.6c1.49-3.1,3.25-6.24,3.38-9.94c0.55-15.01-8.91-28.48-23.03-32.59
		c-15.31-4.46-30.55,1.41-37.88,15.22c-6.5,12.26-12.67,24.71-18.45,37.33c-8.66,18.9,2.24,39.99,22.66,44.55
		C896.93,353.34,909.57,347.95,916.31,335.22z M876.67,294.35c-1.91-2.33-2.82-4.26-0.83-7.55c5.33-8.79,7.54-19.46,17.46-25.34
		c9.91-5.87,21.17-5.25,30.82,2.74c8.83,7.3,11.72,18.49,7.17,28.68c-2.2,4.93-4.98,9.61-7.21,14.53c-2.85,6.3-7.1,9.25-14.21,6.8
		C897.56,309.81,885.38,305,876.67,294.35z M785.53,335.22c6.91-13.04,13.43-26.3,19.81-39.6c1.49-3.1,3.25-6.24,3.38-9.94
		c0.55-15.01-8.91-28.48-23.03-32.59c-15.31-4.46-30.55,1.41-37.88,15.22c-6.5,12.26-12.67,24.71-18.45,37.33
		c-8.66,18.9,2.24,39.99,22.66,44.55C766.15,353.34,778.79,347.95,785.53,335.22z M745.89,294.35c-1.91-2.33-2.82-4.26-0.83-7.55
		c5.33-8.79,7.54-19.46,17.46-25.34c9.91-5.87,21.17-5.25,30.82,2.74c8.83,7.3,11.72,18.49,7.17,28.68
		c-2.2,4.93-4.98,9.61-7.21,14.53c-2.85,6.3-7.1,9.25-14.21,6.8C766.78,309.81,754.6,305,745.89,294.35z M654.75,335.22
		c6.91-13.04,13.43-26.3,19.81-39.6c1.49-3.1,3.25-6.24,3.38-9.94c0.55-15.01-8.91-28.48-23.03-32.59
		c-15.31-4.46-30.55,1.41-37.88,15.22c-6.5,12.26-12.67,24.71-18.45,37.33c-8.66,18.9,2.24,39.99,22.66,44.55
		C635.37,353.34,648.01,347.95,654.75,335.22z M615.1,294.35c-1.91-2.33-2.82-4.26-0.83-7.55c5.33-8.79,7.54-19.46,17.46-25.34
		c9.91-5.87,21.17-5.25,30.82,2.74c8.83,7.3,11.72,18.49,7.17,28.68c-2.2,4.93-4.98,9.61-7.21,14.53c-2.85,6.3-7.1,9.25-14.21,6.8
		C635.99,309.81,623.82,305,615.1,294.35z M523.97,335.22c6.91-13.04,13.43-26.3,19.81-39.6c1.49-3.1,3.25-6.24,3.38-9.94
		c0.55-15.01-8.91-28.48-23.03-32.59c-15.31-4.46-30.55,1.41-37.88,15.22c-6.5,12.26-12.67,24.71-18.45,37.33
		c-8.66,18.9,2.24,39.99,22.66,44.55C504.59,353.34,517.23,347.95,523.97,335.22z M484.32,294.35c-1.91-2.33-2.82-4.26-0.83-7.55
		c5.33-8.79,7.54-19.46,17.46-25.34c9.91-5.87,21.17-5.25,30.82,2.74c8.83,7.3,11.72,18.49,7.17,28.68
		c-2.2,4.93-4.98,9.61-7.21,14.53c-2.85,6.3-7.1,9.25-14.21,6.8C505.21,309.81,493.03,305,484.32,294.35z"/>
</g>
</svg>
